<svg width="280" height="280" viewBox="0 0 280 280" fill="none" xmlns="http://www.w3.org/2000/svg">
  <path d="M221.667 93.3333C221.667 74.0034 205.997 58.3333 186.667 58.3333H58.3333V186.667C58.3333 205.997 74.0034 221.667 93.3333 221.667V280L88.5254 279.875C40.8058 277.453 2.54688 239.194 0.125326 191.475L0 186.667V23.3333C0 10.4467 10.4467 3.75816e-07 23.3333 0H186.667C238.213 0 280 41.7868 280 93.3333V280H93.3333V221.667H221.667V93.3333Z" fill="#00C16A"/>
  <path d="M105 105H140C159.33 105 175 120.67 175 140V175H140C120.67 175 105 159.33 105 140V105Z" fill="#00C16A"/>
</svg>
